{
	"asset":{
		"version":"2.0",
		"generator":"Created using the official Cinema 4D glTF Exporter 1.000x287526"
	},
	"scenes":[{
		"nodes":[0,
		1]
	}],
	"nodes":[{
		"name":"Cylinder.12",
		"translation":[-0.038982149213552478,
		13.198493957519532,
		-12.9553804397583],
		"rotation":[0.0,
		0.0,
		0.0,
		-1.0],
		"scale":[1.0,
		1.0,
		1.0],
		"mesh":0
	},
	{
		"name":"Cylinder.1",
		"translation":[0.0,
		14.481583595275879,
		0.0],
		"rotation":[0.0,
		0.0,
		0.0,
		-1.0],
		"scale":[1.0,
		1.0,
		1.0],
		"mesh":1
	}],
	"meshes":[{
		"primitives":[{
			"attributes":{
				"POSITION":1,
				"NORMAL":2,
				"TEXCOORD_0":3
			},
			"indices":0,
			"material":0
		}]
	},
	{
		"primitives":[{
			"attributes":{
				"POSITION":5,
				"NORMAL":6,
				"TEXCOORD_0":7
			},
			"indices":4,
			"material":1
		}]
	}],
	"accessors":[{
		"bufferView":0,
		"type":"SCALAR",
		"componentType":5123,
		"count":5580,
		"byteOffset":0,
		"min":[0],
		"max":[1245]
	},
	{
		"bufferView":1,
		"type":"VEC3",
		"componentType":5126,
		"count":1246,
		"byteOffset":0,
		"min":[-34.1225700378418,
		-13.78945255279541,
		-26.124332427978517],
		"max":[34.1225700378418,
		13.78945255279541,
		26.124332427978517]
	},
	{
		"bufferView":1,
		"type":"VEC3",
		"componentType":5126,
		"count":1246,
		"byteOffset":12,
		"min":[-1.0,
		-1.0,
		-1.0],
		"max":[1.0,
		1.0,
		1.0]
	},
	{
		"bufferView":1,
		"type":"VEC2",
		"componentType":5126,
		"count":1246,
		"byteOffset":24,
		"min":[0.006894789170473814,
		0.006894788704812527],
		"max":[0.9931052327156067,
		0.9659732580184937]
	},
	{
		"bufferView":2,
		"type":"SCALAR",
		"componentType":5123,
		"count":9114,
		"byteOffset":0,
		"min":[0],
		"max":[1843]
	},
	{
		"bufferView":3,
		"type":"VEC3",
		"componentType":5126,
		"count":1844,
		"byteOffset":0,
		"min":[-4.961573600769043,
		-14.318707466125489,
		-4.961573600769043],
		"max":[4.961573600769043,
		18.24980354309082,
		4.961573600769043]
	},
	{
		"bufferView":3,
		"type":"VEC3",
		"componentType":5126,
		"count":1844,
		"byteOffset":12,
		"min":[-1.0,
		-0.3005850613117218,
		-1.0],
		"max":[1.0,
		1.0,
		1.0]
	},
	{
		"bufferView":3,
		"type":"VEC2",
		"componentType":5126,
		"count":1844,
		"byteOffset":24,
		"min":[0.007141711190342903,
		0.007141711190342903],
		"max":[0.8799027800559998,
		0.9928582906723023]
	}],
	"bufferViews":[{
		"buffer":0,
		"byteOffset":0,
		"byteLength":11160,
		"target":34963
	},
	{
		"buffer":0,
		"byteOffset":11160,
		"byteLength":39872,
		"target":34962,
		"byteStride":32
	},
	{
		"buffer":1,
		"byteOffset":0,
		"byteLength":18228,
		"target":34963
	},
	{
		"buffer":1,
		"byteOffset":18228,
		"byteLength":59008,
		"target":34962,
		"byteStride":32
	}],
	"buffers":[{
		"uri":"data:application/octet-stream;base64,",
		"byteLength":51032
	},
	{
		"uri":"data:application/octet-stream;base64,",
		"byteLength":77236
	}],
	"images":[{
		"uri":"data:image/jpeg;base64,"
	},
	{
		"uri":"data:image/jpeg;base64,"
	}],
	"samplers":[{
		"magFilter":9729,
		"minFilter":9729,
		"wrapS":10497,
		"wrapT":10497
	},
	{
		"magFilter":9729,
		"minFilter":9729,
		"wrapS":10497,
		"wrapT":10497
	}],
	"textures":[{
		"sampler":0,
		"source":0
	},
	{
		"sampler":1,
		"source":1
	}],
	"materials":[{
		"pbrMetallicRoughness":{
			"baseColorFactor":[1.0,
			1.0,
			1.0,
			1.0],
			"metallicFactor":1.0,
			"roughnessFactor":1.0
		},
		"emissiveTexture":{
			"index":0
		},
		"emissiveFactor":[1.0,
		1.0,
		1.0],
		"alphaMode":"OPAQUE",
		"doubleSided":false,
		"name":"Mat"
	},
	{
		"pbrMetallicRoughness":{
			"baseColorFactor":[1.0,
			1.0,
			1.0,
			1.0],
			"metallicFactor":1.0,
			"roughnessFactor":1.0
		},
		"emissiveTexture":{
			"index":1
		},
		"emissiveFactor":[1.0,
		1.0,
		1.0],
		"alphaMode":"OPAQUE",
		"doubleSided":false,
		"name":"Mat"
	}]
}