{
	"asset":{
		"version":"2.0",
		"generator":"Created using the official Cinema 4D glTF Exporter 1.000x287526"
	},
	"scenes":[{
		"nodes":[0]
	}],
	"nodes":[{
		"name":"beijing",
		"children":[1,
		2,
		3,
		4]
	},
	{
		"name":"zhong",
		"translation":[38.380374908447269,
		0.0,
		-18.0211124420166],
		"rotation":[0.0,
		0.0,
		0.0,
		-1.0],
		"scale":[1.0,
		1.0,
		1.0],
		"mesh":0
	},
	{
		"name":"tiantan",
		"translation":[206.0432891845703,
		0.0,
		58.724857330322269],
		"rotation":[0.0,
		0.0,
		0.0,
		-1.0],
		"scale":[1.0,
		1.0,
		1.0],
		"mesh":1
	},
	{
		"name":"tower",
		"translation":[-179.2963409423828,
		-2.4860522747039797,
		-41.825477600097659],
		"rotation":[0.0,
		0.0,
		0.0,
		-1.0],
		"scale":[1.0,
		1.0,
		1.0],
		"mesh":2
	},
	{
		"name":"beijing_2",
		"mesh":3
	}],
	"meshes":[{
		"primitives":[{
			"attributes":{
				"POSITION":1,
				"NORMAL":2,
				"TEXCOORD_0":3
			},
			"indices":0,
			"material":0
		}]
	},
	{
		"primitives":[{
			"attributes":{
				"POSITION":5,
				"NORMAL":6,
				"TEXCOORD_0":7
			},
			"indices":4,
			"material":0
		}]
	},
	{
		"primitives":[{
			"attributes":{
				"POSITION":9,
				"NORMAL":10,
				"TEXCOORD_0":11
			},
			"indices":8,
			"material":0
		}]
	},
	{
		"primitives":[{
			"attributes":{
				"POSITION":13,
				"NORMAL":14,
				"TEXCOORD_0":15
			},
			"indices":12,
			"material":0
		}]
	}],
	"accessors":[{
		"bufferView":0,
		"type":"SCALAR",
		"componentType":5123,
		"count":6612,
		"byteOffset":0,
		"min":[0],
		"max":[2131]
	},
	{
		"bufferView":1,
		"type":"VEC3",
		"componentType":5126,
		"count":2132,
		"byteOffset":0,
		"min":[-55.286399841308597,
		-14.74732780456543,
		-44.22911834716797],
		"max":[55.286399841308597,
		143.06919860839845,
		44.22911834716797]
	},
	{
		"bufferView":1,
		"type":"VEC3",
		"componentType":5126,
		"count":2132,
		"byteOffset":12,
		"min":[-1.0,
		-1.0,
		-1.0],
		"max":[1.0,
		1.0,
		1.0]
	},
	{
		"bufferView":1,
		"type":"VEC2",
		"componentType":5126,
		"count":2132,
		"byteOffset":24,
		"min":[0.01624443754553795,
		0.02299991250038147],
		"max":[0.37351059913635256,
		0.5680711269378662]
	},
	{
		"bufferView":2,
		"type":"SCALAR",
		"componentType":5123,
		"count":8004,
		"byteOffset":0,
		"min":[0],
		"max":[2389]
	},
	{
		"bufferView":3,
		"type":"VEC3",
		"componentType":5126,
		"count":2390,
		"byteOffset":0,
		"min":[-64.67202758789063,
		-14.527765274047852,
		-64.67202758789063],
		"max":[64.67202758789063,
		138.4021759033203,
		71.67009735107422]
	},
	{
		"bufferView":3,
		"type":"VEC3",
		"componentType":5126,
		"count":2390,
		"byteOffset":12,
		"min":[-0.9999646544456482,
		-1.0,
		-0.9987651109695435],
		"max":[0.9999646544456482,
		1.0,
		0.999964714050293]
	},
	{
		"bufferView":3,
		"type":"VEC2",
		"componentType":5126,
		"count":2390,
		"byteOffset":24,
		"min":[0.016880588605999948,
		0.06010974198579788],
		"max":[0.5489274263381958,
		0.5606194734573364]
	},
	{
		"bufferView":4,
		"type":"SCALAR",
		"componentType":5123,
		"count":33168,
		"byteOffset":0,
		"min":[0],
		"max":[7986]
	},
	{
		"bufferView":5,
		"type":"VEC3",
		"componentType":5126,
		"count":7987,
		"byteOffset":0,
		"min":[-83.85617065429688,
		-12.004979133605957,
		-61.14790725708008],
		"max":[95.81219482421875,
		127.16297912597656,
		61.55287551879883]
	},
	{
		"bufferView":5,
		"type":"VEC3",
		"componentType":5126,
		"count":7987,
		"byteOffset":12,
		"min":[-1.0,
		-1.0,
		-1.0],
		"max":[1.0,
		1.0,
		1.0]
	},
	{
		"bufferView":5,
		"type":"VEC2",
		"componentType":5126,
		"count":7987,
		"byteOffset":24,
		"min":[0.06903412193059921,
		0.02543032169342041],
		"max":[0.5397751927375794,
		0.5673828125]
	},
	{
		"bufferView":6,
		"type":"SCALAR",
		"componentType":5123,
		"count":87663,
		"byteOffset":0,
		"min":[0],
		"max":[27252]
	},
	{
		"bufferView":7,
		"type":"VEC3",
		"componentType":5126,
		"count":27253,
		"byteOffset":0,
		"min":[-293.13714599609377,
		-43.5,
		-293.13714599609377],
		"max":[293.13714599609377,
		230.46368408203126,
		293.13714599609377]
	},
	{
		"bufferView":7,
		"type":"VEC3",
		"componentType":5126,
		"count":27253,
		"byteOffset":12,
		"min":[-1.0,
		-1.0,
		-1.0],
		"max":[1.0,
		1.0,
		1.0]
	},
	{
		"bufferView":7,
		"type":"VEC2",
		"componentType":5126,
		"count":27253,
		"byteOffset":24,
		"min":[0.016103794798254968,
		0.0011674510315060616],
		"max":[0.9983916282653809,
		0.8746483325958252]
	}],
	"bufferViews":[{
		"buffer":0,
		"byteOffset":0,
		"byteLength":13224,
		"target":34963
	},
	{
		"buffer":0,
		"byteOffset":13224,
		"byteLength":68224,
		"target":34962,
		"byteStride":32
	},
	{
		"buffer":1,
		"byteOffset":0,
		"byteLength":16008,
		"target":34963
	},
	{
		"buffer":1,
		"byteOffset":16008,
		"byteLength":76480,
		"target":34962,
		"byteStride":32
	},
	{
		"buffer":2,
		"byteOffset":0,
		"byteLength":66336,
		"target":34963
	},
	{
		"buffer":2,
		"byteOffset":66336,
		"byteLength":255584,
		"target":34962,
		"byteStride":32
	},
	{
		"buffer":3,
		"byteOffset":0,
		"byteLength":175326,
		"target":34963
	},
	{
		"buffer":3,
		"byteOffset":175328,
		"byteLength":872096,
		"target":34962,
		"byteStride":32
	}],
	"buffers":[{
		"uri":"data:application/octet-stream;base64,",
		"byteLength":81448
	},
	{
		"uri":"data:application/octet-stream;base64,",
		"byteLength":92488
	},
	{
		"uri":"data:application/octet-stream;base64,",
		"byteLength":321920
	},
	{
		"uri":"data:application/octet-stream;base64,",
		"byteLength":1047424
	}],
	"images":[{
		"uri":"data:image/jpeg;base64,"
	}],
	"samplers":[{
		"magFilter":9729,
		"minFilter":9729,
		"wrapS":10497,
		"wrapT":10497
	}],
	"textures":[{
		"sampler":0,
		"source":0
	}],
	"materials":[{
		"pbrMetallicRoughness":{
			"baseColorTexture":{
				"index":0
			},
			"baseColorFactor":[1.0,
			1.0,
			1.0,
			1.0],
			"metallicFactor":1.0,
			"roughnessFactor":1.0
		},
		"emissiveFactor":[0.0,
		0.0,
		0.0],
		"alphaMode":"OPAQUE",
		"doubleSided":false,
		"name":"Mat"
	}]
}